<?xml version="1.0" encoding="UTF-8"?>
<svg version="1.1" viewBox="0 0 1688 1748" width="422" height="437" xmlns="http://www.w3.org/2000/svg">
<path transform="translate(855,516)" d="m0 0h563l16 1 16 4 13 7 10 9 6 7 7 14 2 8 1 12v145l-1 314-2 4-19-2h-52l-24 2-11 2-127 1-15 1-1 5-1 60-1 9-5 5-12 15-10 15-8 13-2 1v-121l-1-2-17-1h-42l-75 1h-78l1 206h187l-2 17-2 20-1 3h-183v71l1 133h144l56-1 5-3 5-9 1-10 1-158 21 5 18 3v157l-2 12-5 12-8 11-8 8-15 9-9 3-11 1h-922l-15-1-15-5-11-6-12-11-8-13-4-10-2-11v-668l4-13 6-11 9-10 7-6 9-5 11-4 14-2 191-1v-184l3-15 7-14 9-11 11-9 11-5 12-3zm-348 38-10 1-8 5-5 6-3 7-1 5v137l1 44h213v-204l-83-1zm772 0-41 1-1 1v203l13 1h199l1-179-2-12-8-10-7-4-26-1zm-546 1v204l51 1h30l132-1v-203l-1-1zm252 0-1 37v91l1 76h213v-203l-3-1zm-737 243-9 3-8 7-2 5v193h211l2-1v-207zm737 0v208l189 1h21l3-1 1-18-1-189-1-1zm-325 0-179 1v206l1 1h103l108-1 1-1v-206zm230 0-157 1v206l1 1h211l1-1v-206l-1-1zm544 0-197 1v203l1 3 2 1 43 1h45l120-1 1-1v-206l-1-1zm-700 246-1 1v205l1 1h212v-206l-39-1zm-505 1-1 22v49l1 134 1 1h211l1-1v-205zm259-1-7 1-1 29v59l1 118 10 1h107l96-1v-206zm-251 246-8 1v173l1 16 3 7 10 6 6 2 13 1h179l1-1v-64l1-139-1-2zm505 0-9 1v204l1 1h211l1-1v-205zm-87 0-174 1-1 32v60l1 113h188l25-1v-203l-1-1-18-1z" fill="#5FBBE0"/>
<path transform="translate(480,139)" d="m0 0h719l1 14v102l1 28 4 18 5 13 9 15 11 12 11 8 16 8 13 4 7 1h25l16-4 17-8 11-8 10-9 9-13 8-15 4-14 2-15 1-136h34l27 2 26 5 25 9 16 8 14 9 13 10 11 9v2l4 2 7 8 12 15 8 13 8 15 9 23 5 17 2 12 1 11 1 134-1 1-197 1h-995l-334-1 1-129 2-21 5-22 7-21 10-20 12-18 9-11 9-10 12-11 16-12 18-10 13-6 24-8 22-4 25-2h37l2 7v124l3 22 5 16 8 15 9 11 7 7 13 9 17 8 18 4h21l15-3 16-7 11-7 11-9 10-12 8-15 5-15 2-14z" fill="#5FBBE0"/>
<path transform="translate(1423,1082)" d="m0 0h44l20 2 25 4 17 4 24 8 18 8 20 12 16 12 13 12 7 7 10 13 7 11 10 19 8 24 4 19 1 9v41l-4 24-5 18-7 16-8 15-9 13-8 10-9 10-17 17-8 7-14 12-11 9-10 9-11 9-16 16-10 14-8 15-5 15-3 17-1 19-1 1h-129v-29l3-26 5-19 7-19 8-16 10-16 11-14 10-11 7-8 40-40 8-7 15-16 11-15 8-16 4-12 2-13v-16l-3-16-5-12-8-11-10-9-17-9-14-4-8-1h-29l-17 4-17 8-10 8-8 8-8 13-6 16-3 13-4 26-11-1-116-16-12-2v-10l6-30 6-21 7-19 8-16 10-16 8-10 12-13 12-11 20-14 18-10 25-10 27-7 25-4z" fill="#114060"/>
<path transform="translate(76,492)" d="m0 0h39l1 1v760l1 214 3 22 5 18 9 21 8 14 11 14 12 12 11 9 20 12 17 8 18 5 16 3 11 1h1066l1 39-1 1h-975l-66 1h-16l-19-1-24-4-17-5-21-8-23-12-17-12-15-14-9-9-11-14-8-13-12-23-6-17-4-15-3-17-1-10-1-43z" fill="#5FBBE0"/>
<path transform="translate(384,7)" d="m0 0h10l14 3 12 7 8 8 6 10 4 10 1 6v71l-1 156-3 16-5 9-8 9-12 7-15 4h-12l-13-4-8-4-10-9-6-10-4-12-1-10v-227l5-14 7-10 7-7 14-7z" fill="#114161"/>
<path transform="translate(1279,8)" d="m0 0h18l9 2 10 5 10 9 6 8 5 11 1 4v171l-1 64-3 12-6 10-8 8-10 6-14 4h-15l-13-4-11-7-8-9-6-12-2-10v-233l4-11 6-11 8-8 10-6z" fill="#114060"/>
<path transform="translate(1564,493)" d="m0 0h39v431l-1 152-9-3-19-9-9-3-1-2z" fill="#5FBBE0"/>
<path transform="translate(1369,1605)" d="m0 0h138l1 3v127l-3 2h-136l-1-1v-129z" fill="#124161"/>
<path transform="translate(1084,1064)" d="m0 0h13l11 2 12 5 9 7 5 5 5 6 6 12 3 11v15l-4 14-10 21-14 22-12 17-11 14-4 6-3-1-7-9-12-15-16-24-9-15-8-17-3-11-1-15 3-12 4-9 6-9 7-7 13-8 11-4zm2 32-10 5-7 9-2 6v10l5 10 8 7 7 2h9l10-5 7-8 2-5 1-9-2-8-4-6-8-6-6-2z" fill="#EE3E40"/>
<path transform="translate(831,1310)" d="m0 0h17l12 3 10 5 9 7 8 9 7 14 2 9v17l-3 12-7 16-10 17-10 14-14 19-7 9-3 4-4-2-9-10-15-20-14-21-10-18-5-13-2-11v-12l3-12 5-10 8-10 9-7 14-7zm6 31-9 3-5 4-5 7-2 6v9l5 10 7 7 8 3h9l10-5 7-8 3-8-1-11-4-8-9-7-8-2z" fill="#EE3E40"/>
<path transform="translate(584,1064)" d="m0 0 14 1 10 3 11 6 10 9 6 7 6 13 2 7 1 11-2 14-6 16-9 17-17 25-12 16-10 12-5-5-9-11-15-20-12-19-7-12-7-17-2-8v-17l3-11 6-12 11-12 11-7 11-4zm-3 33-8 4-7 8-2 5-1 7 2 9 6 9 6 4 6 2h9l8-3 6-5 5-9 1-3v-9l-4-10-7-6-6-3z" fill="#EE3E40"/>
<path transform="translate(1084,819)" d="m0 0h14l14 3 11 6 11 9 7 11 4 8 3 14-1 15-5 15-11 21-14 21-14 19-8 10-2 3-4-2-14-17-13-18-12-18-6-10-8-20-2-10v-10l4-15 7-13 10-10 11-7 12-4zm1 32-10 6-6 8-2 6v9l5 10 8 7 6 2h11l8-4 5-4 5-10v-13l-4-8-8-7-6-2z" fill="#EE3E40"/>
<path transform="translate(837,819)" d="m0 0 14 1 13 4 11 7 10 10 8 16 2 6 1 12-2 15-5 13-8 16-9 14-10 14-16 21-5 6-7-6-9-11-15-20-11-17-7-12-7-17-2-9v-15l3-12 5-10 8-10 12-9 12-5zm0 31-9 3-5 5-6 8-1 3v12l4 8 8 7 10 3 10-1 9-6 5-7 2-6v-9l-3-8-6-7-8-4z" fill="#EE3E40"/>
<path transform="translate(327,819)" d="m0 0h16l12 3 10 5 10 8 8 9 6 13 2 6 1 13-3 16-8 19-10 17-13 19-11 14-8 10-3 3-5-5-10-12-15-20-11-17-8-14-6-15-2-7v-20l4-13 6-10 8-9 13-8 12-4zm1 32-8 4-7 8-2 5-1 9 3 9 7 8 7 4 3 1h11l8-4 7-7 3-6v-14l-4-8-8-7-5-2z" fill="#EE3E40"/>
<path transform="translate(583,574)" d="m0 0 16 1 12 4 10 6 10 9 7 11 4 11 1 4v19l-5 16-9 17-11 17-14 20-13 16-2 3-4-1-11-13-12-16-16-24-10-19-5-15-1-6v-12l3-12 7-13 7-8 10-7 10-5zm-2 32-8 4-8 9-2 7v8l4 9 6 7 9 4h11l9-5 7-8 2-4v-14l-4-8-7-6-7-3z" fill="#EE3E40"/>
<path transform="translate(328,1310)" d="m0 0h16l12 3 11 6 11 9 7 10 5 12 2 10v11l-3 14-5 12-9 17-13 19-13 18-12 15-4-2-11-14-14-19-11-17-9-15-6-15-2-8-1-12 2-14 5-12 6-8 9-9 12-7 9-3zm3 31-8 3-8 8-4 10v8l4 9 7 8 6 3 11 1 10-4 5-4 5-8 1-3v-13l-4-8-8-7-8-3z" fill="#EE3E40"/>
<path transform="translate(1340,574)" d="m0 0 14 1 12 4 10 6 10 9 7 10 5 13 1 5v18l-5 15-8 16-18 27-14 19-10 12-5-4-11-14-12-16-16-25-8-16-4-12-1-7v-13l2-10 7-14 9-10 14-9 12-4zm0 32-9 3-8 7-4 7-1 10 3 9 8 9 10 4h9l8-4 6-5 5-9v-12l-5-10-8-7-7-2z" fill="#EE3E40"/>
</svg>
